<svg xmlns="http://www.w3.org/2000/svg" viewBox="0 0 1200 760">
  <defs>
    <linearGradient id="bg" x1="0" x2="1" y1="0" y2="1"><stop stop-color="#050505"/><stop offset=".7" stop-color="#101216"/><stop offset="1" stop-color="#050505"/></linearGradient>
    <linearGradient id="gold" x1="0" x2="1"><stop stop-color="#9B7424"/><stop offset=".6" stop-color="#D4AF37"/><stop offset="1" stop-color="#FFF2A8"/></linearGradient>
  </defs>
  <rect width="1200" height="760" fill="url(#bg)"/>
  <path d="M90 120h1020v520H90z" fill="#0B0D10" stroke="#252A31" stroke-width="3"/>
  <path d="M130 170h360v430H130zM530 170h540v110H530zM530 320h250v280H530zM820 320h250v280H820z" fill="#101216" stroke="#252A31" stroke-width="2"/>
  <text x="155" y="225" fill="#D4AF37" font-family="JetBrains Mono, monospace" font-size="24">POS / CAJA</text>
  <text x="560" y="235" fill="#E6E8EA" font-family="Sora, sans-serif" font-size="46" font-weight="800">Gestion Gastronomica</text>
  <path d="M165 285h285M165 340h285M165 395h285M165 450h210" stroke="#A8B0B8" stroke-width="12" stroke-linecap="round" opacity=".45"/>
  <path d="M560 380h180M560 440h135M560 500h210M850 380h160M850 440h190M850 500h120" stroke="url(#gold)" stroke-width="14" stroke-linecap="round"/>
  <circle cx="1010" cy="225" r="26" fill="none" stroke="#38D7FF" stroke-width="5"/>
</svg>

