<svg xmlns="http://www.w3.org/2000/svg" viewBox="0 0 1200 760">
  <rect width="1200" height="760" fill="#050505"/>
  <g fill="#101216" stroke="#252A31" stroke-width="3">
    <rect x="110" y="120" width="250" height="150" rx="10"/>
    <rect x="475" y="120" width="250" height="150" rx="10"/>
    <rect x="840" y="120" width="250" height="150" rx="10"/>
    <rect x="290" y="430" width="260" height="150" rx="10"/>
    <rect x="650" y="430" width="260" height="150" rx="10"/>
  </g>
  <g stroke="#D4AF37" stroke-width="5" fill="none">
    <path d="M360 195h115M725 195h115M600 270v160M420 430 235 270M780 430 965 270"/>
  </g>
  <g fill="#E6E8EA" font-family="Sora, sans-serif" font-size="28" font-weight="800">
    <text x="160" y="200">Ventas</text><text x="530" y="200">API</text><text x="895" y="200">Stock</text>
    <text x="340" y="512">Reportes</text><text x="720" y="512">Auditoria</text>
  </g>
  <g fill="#A8B0B8" font-family="Inter, sans-serif" font-size="20">
    <text x="145" y="235">Caja y pedidos</text><text x="510" y="235">Contratos y reglas</text><text x="885" y="235">Movimientos</text>
    <text x="330" y="545">Indicadores diarios</text><text x="700" y="545">Historial operacional</text>
  </g>
</svg>

